<svg width="24" height="24" viewBox="0 0 24 24" fill="none" xmlns="http://www.w3.org/2000/svg">
<path fill-rule="evenodd" clip-rule="evenodd" d="M13 15.9C14.1292 15.6691 15.144 15.0554 15.8729 14.1625C16.6017 13.2697 16.9999 12.1526 17 11V4H7V11C7.00014 12.1526 7.3983 13.2697 8.12714 14.1625C8.85599 15.0554 9.87081 15.6691 11 15.9V18H9V20H15V18H13V15.9ZM9 6H15V11C15 11.7956 14.6839 12.5587 14.1213 13.1213C13.5587 13.6839 12.7956 14 12 14C11.2044 14 10.4413 13.6839 9.87868 13.1213C9.31607 12.5587 9 11.7956 9 11V6Z" fill="black"/>
<path d="M18 6H20V11H18V6ZM6 6H4V11H6V6Z" fill="black"/>
</svg>
